# xmcd
#
# Track frame offsets: 
#        150
#        21962
#        42525
#
# Disc length: 856 seconds
#
# Revision: 1
# Processed by: cddbd v1.5.1PL0 Copyright (c) Steve Scherf et al.
# Submitted via: ExactAudioCopy v0.90b4
#
DISCID=21035603
DTITLE=Iceman - LOST COMPLEX CDS
DYEAR=1998
DGENRE=JPop
TTITLE0=LOST COMPLEX
TTITLE1=Dizzy Boogie
TTITLE2=LOST COMPLEX [Instrumental]
EXTD=YEAR: 1998
EXTT0=
EXTT1=
EXTT2=
PLAYORDER=
